<?xml version="1.0" encoding="iso-8859-1"?>
<!-- Generator: Adobe Illustrator 18.0.0, SVG Export Plug-In . SVG Version: 6.00 Build 0)  -->
<svg version="1.1" id="Layer_1" xmlns="http://www.w3.org/2000/svg" xmlns:xlink="http://www.w3.org/1999/xlink" x="0px" y="0px"
	 width="408.42px" height="225.752px" viewBox="0 0 408.42 225.752" style="enable-background:new 0 0 408.42 225.752;"
	 xml:space="preserve">
<g>
	<path style="fill:#222222;" d="M354.443,150.409c9.289-12.53,14.788-28.038,14.788-44.833c0-41.625-33.743-75.368-75.368-75.368
		s-75.368,33.743-75.368,75.368s33.743,75.368,75.368,75.368c16.795,0,32.303-5.499,44.833-14.788l34.651,34.652l15.747-15.747
		L354.443,150.409z M323.372,150.831c-8.485,5.544-18.617,8.778-29.509,8.778c-29.842,0-54.034-24.192-54.034-54.034
		c0-29.842,24.192-54.034,54.034-54.034c29.842,0,54.034,24.192,54.034,54.034c0,10.892-3.234,21.024-8.778,29.509
		C335.017,141.362,329.649,146.73,323.372,150.831z"/>
	<g>
		<path style="fill:#222222;" d="M240.341,30.613H29.505l20.555,21h169.355C225.254,42.613,232.328,35.613,240.341,30.613z"/>
		<path style="fill:#222222;" d="M63.763,64.613l20.555,20h119.379c1.642-8,4.12-14,7.34-20H63.763z"/>
		<path style="fill:#222222;" d="M128.853,129.613l20.555,20h63.416c-3.546-6-6.342-13-8.287-20H128.853z"/>
		<path style="fill:#222222;" d="M201.778,97.613H96.308l20.555,20h85.306c-0.511-5-0.803-7.647-0.803-11.713
			C201.366,103.011,201.517,99.613,201.778,97.613z"/>
		<path style="fill:#222222;" d="M220.724,162.613h-59.326l18.842,19h60.101C232.915,174.613,226.302,169.613,220.724,162.613z"/>
	</g>
</g>
</svg>
