<?xml version="1.0" encoding="iso-8859-1"?>
<!-- Generator: Adobe Illustrator 18.0.0, SVG Export Plug-In . SVG Version: 6.00 Build 0)  -->
<svg version="1.1" id="Layer_1" xmlns="http://www.w3.org/2000/svg" xmlns:xlink="http://www.w3.org/1999/xlink" x="0px" y="0px"
	 width="1203.67px" height="225.752px" viewBox="0 0 1203.67 225.752" style="enable-background:new 0 0 1203.67 225.752;"
	 xml:space="preserve">
<g>
	<path style="fill:#222222;" d="M354.443,150.409c9.289-12.53,14.788-28.038,14.788-44.833c0-41.625-33.743-75.368-75.368-75.368
		s-75.368,33.743-75.368,75.368s33.743,75.368,75.368,75.368c16.795,0,32.303-5.499,44.833-14.788l34.651,34.652l15.747-15.747
		L354.443,150.409z M323.372,150.831c-8.485,5.544-18.617,8.778-29.509,8.778c-29.842,0-54.034-24.192-54.034-54.034
		c0-29.842,24.192-54.034,54.034-54.034c29.842,0,54.034,24.192,54.034,54.034c0,10.892-3.234,21.024-8.778,29.509
		C335.017,141.362,329.649,146.73,323.372,150.831z"/>
	<g>
		<path style="fill:#222222;" d="M240.341,30.613H29.505l20.555,21h169.355C225.254,42.613,232.328,35.613,240.341,30.613z"/>
		<path style="fill:#222222;" d="M63.763,64.613l20.555,20h119.379c1.642-8,4.12-14,7.34-20H63.763z"/>
		<path style="fill:#222222;" d="M128.853,129.613l20.555,20h63.416c-3.546-6-6.342-13-8.287-20H128.853z"/>
		<path style="fill:#222222;" d="M201.778,97.613H96.308l20.555,20h85.306c-0.511-5-0.803-7.647-0.803-11.713
			C201.366,103.011,201.517,99.613,201.778,97.613z"/>
		<path style="fill:#222222;" d="M220.724,162.613h-59.326l18.842,19h60.101C232.915,174.613,226.302,169.613,220.724,162.613z"/>
	</g>
</g>
<g>
	<path style="fill:#222222;" d="M451.668,147.013c0,5.428-0.187,11.58-3.545,15.946c-1.884,2.396-5.63,5.253-12.335,5.253
		c-6.706,0-10.619-2.857-12.483-5.229c-3.377-4.391-3.637-10.543-3.637-15.971v-51.4h-20v53c0,11.321,1.385,19.373,8.436,27.064
		c9.357,9.862,21.302,11.335,27.584,11.335s18.209-1.473,27.602-11.373c7.016-7.654,8.378-15.706,8.378-27.027v-53h-20V147.013z"/>
	<rect x="492.668" y="95.613" style="fill:#222222;" width="21" height="89"/>
	<path style="fill:#222222;" d="M503.092,54.015c-7.278,0-13.2,5.921-13.2,13.2c0,7.279,5.922,13.2,13.2,13.2s13.2-5.921,13.2-13.2
		C516.292,59.936,510.37,54.015,503.092,54.015z"/>
	<path style="fill:#222222;" d="M576.29,168.213c-12.619,0-26.2-8.699-26.2-27.799c0-19.342,13.26-28,26.4-28
		c3.456,0,15.464,0.812,23.736,11.262l5.442,6.76v-27.384l-1.369-0.896c-8.098-5.668-17.402-8.542-27.565-8.542
		c-13.181,0-25.246,4.739-33.933,13.343c-8.698,8.616-13.499,20.568-13.499,33.656c0,26.886,19.929,46.399,47.394,46.399
		c7.142,0,17.613-1.593,27.961-9.18l1.012-0.899v-27.062l-5.102,6.431C594.405,163.76,585.462,168.213,576.29,168.213z"/>
	<polygon style="fill:#222222;" points="695.931,95.613 668.634,95.613 642.668,122.104 642.668,32.613 621.668,32.613 
		621.668,184.613 642.668,184.613 642.668,148.656 643.036,148.198 674.929,184.613 701.753,184.613 657.206,134.337 	"/>
	<path style="fill:#222222;" d="M736.662,127.854c-9.679-4.119-11.575-5.255-11.575-9.04c0-5.938,5.357-6.4,7-6.4
		c3.819,0,7.12,2.45,8.83,6.554l1.262,3.027l17.232-9.055l-1.204-2.591c-5.016-10.792-14.079-16.735-25.52-16.735
		c-16.27,0-27.2,10.529-27.2,26.2c0,4.204,0.529,9.163,4.487,14.11c4.41,5.339,11.612,8.771,21.313,13.039
		c8.418,3.669,11.599,5.572,11.599,11.05c0,3.789-2.232,10.2-10.6,10.2c-8.804,0-12.71-8.129-13.98-11.625l-1.076-2.959
		l-17.876,7.497l0.89,2.645c7.259,21.566,26.208,23.243,31.843,23.243c18.9,0,31.6-12.136,31.6-30.2
		c0-4.233-0.577-9.798-5.057-15.273C754.817,136.772,748.24,132.677,736.662,127.854z"/>
	<path style="fill:#222222;" d="M818.686,168.213c-12.619,0-26.2-8.699-26.2-27.799c0-19.342,13.26-28,26.4-28
		c3.456,0,15.267,0.812,23.538,11.262l5.244,6.76v-27.384l-1.171-0.896c-8.098-5.668-17.303-8.542-27.466-8.542
		c-13.181,0-25.197,4.739-33.884,13.343c-8.698,8.616-13.475,20.568-13.475,33.656c0,26.886,19.941,46.399,47.406,46.399
		c7.142,0,17.922-1.593,28.27-9.18l1.32-0.899v-27.062l-5.404,6.431C837.102,163.76,827.858,168.213,818.686,168.213z"/>
	<path style="fill:#222222;" d="M914.824,97.331c-2.234-1.118-8.193-3.717-14.25-3.717c-6.943,0-11.907,2.936-15.907,6.041v-4.042
		h-20v89h20v-46.799c0-13.446,2.504-18.196,4.267-20.547c2.112-2.689,5.275-4.053,9.294-4.053c1.549,0,3.996,0.394,6.727,2.272
		l2.803,1.917l9.791-18.706L914.824,97.331z"/>
	<path style="fill:#222222;" d="M980.748,152.582c-1.738,3.86-4.58,7.628-7.786,10.327c-4.343,3.619-9.134,5.104-15.078,5.104
		c-12.658,0-21.869-8.4-23.229-22.4h64.321l0.105-2.691c0.437-12.034-2.916-25.208-8.334-32.919
		c-3.442-4.958-13.634-16.439-33.863-16.439c-25.436,0-43.2,19.352-43.2,47.024c0,14.942,4.837,27.222,13.989,35.489
		c7.799,7.044,18.457,10.93,30.011,10.93c11.51,0,21.469-3.686,29.612-10.972c4.116-3.724,8.069-8.911,10.847-14.236l1.356-2.601
		l-17.417-9.58L980.748,152.582z M956.884,112.013c9.567,0,17.465,6.6,20.552,15.6h-41.118
		C939.362,118.613,947.403,112.013,956.884,112.013z"/>
	<path style="fill:#222222;" d="M1076.946,152.582c-1.738,3.86-4.58,7.628-7.786,10.327c-4.343,3.619-9.134,5.104-15.078,5.104
		c-12.658,0-21.869-8.4-23.229-22.4h64.321l0.105-2.691c0.437-12.034-2.916-25.208-8.334-32.919
		c-3.442-4.958-13.634-16.439-33.863-16.439c-25.436,0-43.2,19.352-43.2,47.024c0,14.942,4.837,27.222,13.989,35.489
		c7.799,7.044,18.457,10.93,30.011,10.93c11.51,0,21.469-3.686,29.612-10.972c4.116-3.724,8.069-8.911,10.847-14.236l1.356-2.601
		l-17.417-9.58L1076.946,152.582z M1053.081,112.013c9.567,0,17.465,6.6,20.552,15.6h-41.118
		C1035.559,118.613,1043.6,112.013,1053.081,112.013z"/>
	<path style="fill:#222222;" d="M1178.559,106.334c-5.382-7.965-15.111-12.72-26.188-12.72c-9.419,0-15.702,3.482-20.702,7.223
		v-5.225h-20v89h20v-46.399c0-6.624,0.606-14.936,5.302-20.47c3.013-3.586,7.04-5.33,12.307-5.33c4.954,0,8.729,1.629,11.222,4.833
		c2.789,3.611,3.17,8.558,3.17,13.366v53.999h20v-54.399C1183.668,121.44,1183.473,113.588,1178.559,106.334z"/>
</g>
</svg>
